<svg aria-hidden="true" style="position: absolute; width: 0; height: 0; overflow: hidden;" version="1.1" xmlns="http://www.w3.org/2000/svg" xmlns:xlink="http://www.w3.org/1999/xlink">
<defs>
<symbol id="icon-settings" viewBox="0 0 32 32">
<title>settings</title>
<path d="M25.907 17.307c0.053-0.427 0.093-0.853 0.093-1.307s-0.040-0.88-0.093-1.307l2.813-2.2c0.253-0.2 0.32-0.56 0.16-0.853l-2.667-4.613c-0.12-0.213-0.347-0.333-0.587-0.333-0.080 0-0.16 0.013-0.227 0.040l-3.32 1.333c-0.693-0.533-1.44-0.973-2.253-1.307l-0.507-3.533c-0.040-0.32-0.32-0.56-0.653-0.56h-5.333c-0.333 0-0.613 0.24-0.653 0.56l-0.507 3.533c-0.813 0.333-1.56 0.787-2.253 1.307l-3.32-1.333c-0.080-0.027-0.16-0.040-0.24-0.040-0.227 0-0.453 0.12-0.573 0.333l-2.667 4.613c-0.173 0.293-0.093 0.653 0.16 0.853l2.813 2.2c-0.053 0.427-0.093 0.867-0.093 1.307s0.040 0.88 0.093 1.307l-2.813 2.2c-0.253 0.2-0.32 0.56-0.16 0.853l2.667 4.613c0.12 0.213 0.347 0.333 0.587 0.333 0.080 0 0.16-0.013 0.227-0.040l3.32-1.333c0.693 0.533 1.44 0.973 2.253 1.307l0.507 3.533c0.040 0.32 0.32 0.56 0.653 0.56h5.333c0.333 0 0.613-0.24 0.653-0.56l0.507-3.533c0.813-0.333 1.56-0.787 2.253-1.307l3.32 1.333c0.080 0.027 0.16 0.040 0.24 0.040 0.227 0 0.453-0.12 0.573-0.333l2.667-4.613c0.16-0.293 0.093-0.653-0.16-0.853l-2.813-2.2zM23.267 15.027c0.053 0.413 0.067 0.693 0.067 0.973s-0.027 0.573-0.067 0.973l-0.187 1.507 1.187 0.933 1.44 1.12-0.933 1.613-1.693-0.68-1.387-0.56-1.2 0.907c-0.573 0.427-1.12 0.747-1.667 0.973l-1.413 0.573-0.213 1.507-0.267 1.8h-1.867l-0.253-1.8-0.213-1.507-1.413-0.573c-0.573-0.24-1.107-0.547-1.64-0.947l-1.213-0.933-1.413 0.573-1.693 0.68-0.933-1.613 1.44-1.12 1.187-0.933-0.187-1.507c-0.040-0.413-0.067-0.72-0.067-0.987s0.027-0.573 0.067-0.973l0.187-1.507-1.187-0.933-1.44-1.12 0.933-1.613 1.693 0.68 1.387 0.56 1.2-0.907c0.573-0.427 1.12-0.747 1.667-0.973l1.413-0.573 0.213-1.507 0.267-1.8h1.853l0.253 1.8 0.213 1.507 1.413 0.573c0.573 0.24 1.107 0.547 1.64 0.947l1.213 0.933 1.413-0.573 1.693-0.68 0.933 1.613-1.427 1.133-1.187 0.933 0.187 1.507z"></path>
<path d="M16 10.667c-2.947 0-5.333 2.387-5.333 5.333s2.387 5.333 5.333 5.333 5.333-2.387 5.333-5.333-2.387-5.333-5.333-5.333zM16 18.667c-1.467 0-2.667-1.2-2.667-2.667s1.2-2.667 2.667-2.667 2.667 1.2 2.667 2.667-1.2 2.667-2.667 2.667z"></path>
</symbol>
<symbol id="icon-wallet" viewBox="0 0 32 32">
<title>wallet</title>
<path d="M28 9.707v-3.040c0-1.467-1.2-2.667-2.667-2.667h-18.667c-1.48 0-2.667 1.2-2.667 2.667v18.667c0 1.467 1.187 2.667 2.667 2.667h18.667c1.467 0 2.667-1.2 2.667-2.667v-3.040c0.787-0.467 1.333-1.307 1.333-2.293v-8c0-0.987-0.547-1.827-1.333-2.293zM26.667 12v8h-9.333v-8h9.333zM6.667 25.333v-18.667h18.667v2.667h-8c-1.467 0-2.667 1.2-2.667 2.667v8c0 1.467 1.2 2.667 2.667 2.667h8v2.667h-18.667z"></path>
<path d="M23.333 16c0 1.105-0.895 2-2 2s-2-0.895-2-2c0-1.105 0.895-2 2-2s2 0.895 2 2z"></path>
</symbol>
<symbol id="icon-account" viewBox="0 0 32 32">
<title>account</title>
<path d="M16 2.667c-7.36 0-13.333 5.973-13.333 13.333s5.973 13.333 13.333 13.333c7.36 0 13.333-5.973 13.333-13.333s-5.973-13.333-13.333-13.333zM9.427 24.373c0.573-1.2 4.067-2.373 6.573-2.373s6.013 1.173 6.573 2.373c-1.813 1.44-4.093 2.293-6.573 2.293s-4.76-0.853-6.573-2.293zM24.48 22.44c-1.907-2.32-6.533-3.107-8.48-3.107s-6.573 0.787-8.48 3.107c-1.36-1.787-2.187-4.013-2.187-6.44 0-5.88 4.787-10.667 10.667-10.667s10.667 4.787 10.667 10.667c0 2.427-0.827 4.653-2.187 6.44z"></path>
<path d="M16 8c-2.587 0-4.667 2.080-4.667 4.667s2.080 4.667 4.667 4.667c2.587 0 4.667-2.080 4.667-4.667s-2.080-4.667-4.667-4.667zM16 14.667c-1.107 0-2-0.893-2-2s0.893-2 2-2c1.107 0 2 0.893 2 2s-0.893 2-2 2z"></path>
</symbol>
<symbol id="icon-card" viewBox="0 0 32 32">
<title>card</title>
<path d="M26.667 5.333h-21.333c-1.48 0-2.653 1.187-2.653 2.667l-0.013 16c0 1.48 1.187 2.667 2.667 2.667h21.333c1.48 0 2.667-1.187 2.667-2.667v-16c0-1.48-1.187-2.667-2.667-2.667zM26.667 24h-21.333v-8h21.333v8zM26.667 10.667h-21.333v-2.667h21.333v2.667z"></path>
</symbol>
<symbol id="icon-plus" viewBox="0 0 32 32">
<title>plus</title>
<path d="M25.333 17.333h-8v8h-2.667v-8h-8v-2.667h8v-8h2.667v8h8v2.667z"></path>
</symbol>
</defs>
</svg>
